<?xml version="1.0" standalone="no"?>
<!DOCTYPE svg PUBLIC "-//W3C//DTD SVG 20010904//EN"
 "http://www.w3.org/TR/2001/REC-SVG-20010904/DTD/svg10.dtd">
<svg version="1.0" xmlns="http://www.w3.org/2000/svg"
 width="237.000000pt" height="237.000000pt" viewBox="0 0 237.000000 237.000000"
 preserveAspectRatio="xMidYMid meet">
<metadata>
Created by potrace 1.11, written by Peter Selinger 2001-2013
</metadata>
<g transform="translate(0.000000,237.000000) scale(0.100000,-0.100000)"
fill="#000000" stroke="none">
<path d="M2027 2214 c-3 -3 -109 -11 -267 -19 -133 -7 -220 -13 -290 -20 -72
-7 -202 -15 -318 -20 -51 -2 -123 -6 -160 -10 -37 -4 -107 -9 -157 -10 -87 -3
-202 -10 -217 -13 -8 -2 -2 -403 7 -432 6 -19 12 -20 158 -15 84 3 186 8 227
10 295 16 464 25 588 31 102 4 112 3 113 -13 0 -19 4 -57 14 -153 4 -30 8 -80
10 -110 3 -30 7 -70 10 -87 3 -18 7 -66 10 -105 3 -40 7 -84 10 -98 2 -14 7
-59 10 -100 3 -41 8 -86 10 -100 2 -14 7 -58 10 -99 14 -153 12 -152 175 -117
36 8 83 17 105 20 54 8 91 15 148 28 l49 10 -7 237 c-3 130 -8 259 -10 286 -2
28 -7 122 -10 210 -4 88 -9 194 -11 235 -2 41 -6 154 -10 250 -3 96 -11 183
-16 193 -8 15 -21 18 -93 16 -47 -1 -86 -3 -88 -5z"/>
<path d="M134 1458 c-11 -18 -4 -554 8 -573 3 -5 4 -66 2 -134 -2 -68 -1 -128
2 -133 3 -5 7 -72 8 -149 1 -98 5 -142 13 -147 7 -4 43 -6 80 -4 115 6 206 12
253 16 25 2 50 5 56 5 7 1 10 14 7 34 -4 31 -11 411 -16 849 -1 113 -6 210
-10 214 -4 5 -25 9 -45 10 -20 0 -77 4 -127 8 -215 16 -224 16 -231 4z"/>
<path d="M1707 604 c-1 -1 -51 -5 -112 -8 -284 -15 -343 -18 -380 -22 -22 -2
-92 -6 -155 -9 -63 -3 -160 -8 -215 -11 -55 -3 -120 -7 -145 -9 -57 -3 -92
-14 -84 -26 5 -9 5 -115 0 -242 -3 -72 19 -88 131 -94 165 -8 450 -9 549 -2
54 4 187 10 294 13 192 6 231 9 249 21 11 6 7 373 -4 383 -5 6 -123 11 -128 6z"/>
</g>
</svg>
